<mxfile host="Electron" modified="2024-03-09T06:19:33.791Z" agent="Mozilla/5.0 (Windows NT 10.0; Win64; x64) AppleWebKit/537.36 (KHTML, like Gecko) draw.io/23.1.5 Chrome/120.0.6099.109 Electron/28.1.0 Safari/537.36" etag="k7-rYUuFT-fhogaXxFGq" version="23.1.5" type="device">
  <diagram name="‫עמוד-1‬" id="5AKvG-G0FvDBmYu8xz_p">
    <mxGraphModel dx="631" dy="436" grid="1" gridSize="10" guides="1" tooltips="1" connect="1" arrows="1" fold="1" page="1" pageScale="1" pageWidth="850" pageHeight="1100" math="0" shadow="0">
      <root>
        <mxCell id="0" />
        <mxCell id="1" parent="0" />
        <mxCell id="Uhqnp6pyCTakScg4Vnwg-1" value="Page 27" style="text;html=1;align=center;verticalAlign=middle;whiteSpace=wrap;rounded=0;" parent="1" vertex="1">
          <mxGeometry x="330" y="20" width="60" height="30" as="geometry" />
        </mxCell>
        <mxCell id="Uhqnp6pyCTakScg4Vnwg-2" value="start" style="strokeWidth=2;html=1;shape=mxgraph.flowchart.terminator;whiteSpace=wrap;" parent="1" vertex="1">
          <mxGeometry x="140" y="110" width="100" height="60" as="geometry" />
        </mxCell>
        <mxCell id="Uhqnp6pyCTakScg4Vnwg-3" value="no&#39; 2" style="text;html=1;align=center;verticalAlign=middle;whiteSpace=wrap;rounded=0;" parent="1" vertex="1">
          <mxGeometry x="160" y="60" width="60" height="30" as="geometry" />
        </mxCell>
        <mxCell id="Uhqnp6pyCTakScg4Vnwg-6" value="&lt;br&gt;קלוט שני שלמים והצג את כל השלמים ביניהם כולל (בסדר עולה). לא מובטח שהנתון השני גדול מהראשון" style="shape=note;whiteSpace=wrap;html=1;backgroundOutline=1;fontColor=#000000;darkOpacity=0.05;fillColor=#FFF9B2;strokeColor=none;fillStyle=solid;direction=west;gradientDirection=north;gradientColor=#FFF2A1;shadow=1;size=20;pointerEvents=1;align=right;" parent="1" vertex="1">
          <mxGeometry x="10" y="80" width="110" height="90" as="geometry" />
        </mxCell>
        <mxCell id="Uhqnp6pyCTakScg4Vnwg-20" value="" style="rounded=0;whiteSpace=wrap;html=1;fontColor=default;labelBackgroundColor=default;fillColor=#000000;" parent="1" vertex="1">
          <mxGeometry x="10" y="670" width="140" height="10" as="geometry" />
        </mxCell>
        <mxCell id="Uhqnp6pyCTakScg4Vnwg-28" value="" style="rounded=0;whiteSpace=wrap;html=1;fontColor=default;labelBackgroundColor=default;fillColor=#000000;" parent="1" vertex="1">
          <mxGeometry x="210" y="670" width="140" height="10" as="geometry" />
        </mxCell>
        <mxCell id="Uhqnp6pyCTakScg4Vnwg-59" value="" style="verticalLabelPosition=bottom;verticalAlign=top;html=1;shape=card;whiteSpace=wrap;size=20;arcSize=12;" parent="1" vertex="1">
          <mxGeometry x="590" y="190" width="100" height="60" as="geometry" />
        </mxCell>
        <mxCell id="Uhqnp6pyCTakScg4Vnwg-65" value="" style="edgeStyle=orthogonalEdgeStyle;rounded=0;orthogonalLoop=1;jettySize=auto;html=1;" parent="1" source="Uhqnp6pyCTakScg4Vnwg-61" target="Uhqnp6pyCTakScg4Vnwg-7" edge="1">
          <mxGeometry relative="1" as="geometry" />
        </mxCell>
        <mxCell id="Uhqnp6pyCTakScg4Vnwg-61" value="" style="verticalLabelPosition=bottom;verticalAlign=top;html=1;shape=card;whiteSpace=wrap;size=20;arcSize=12;" parent="1" vertex="1">
          <mxGeometry x="140" y="190" width="100" height="60" as="geometry" />
        </mxCell>
        <mxCell id="Uhqnp6pyCTakScg4Vnwg-62" value="num1,num2" style="text;html=1;align=center;verticalAlign=middle;whiteSpace=wrap;rounded=0;" parent="1" vertex="1">
          <mxGeometry x="160" y="205" width="60" height="30" as="geometry" />
        </mxCell>
        <mxCell id="Uhqnp6pyCTakScg4Vnwg-63" value="" style="endArrow=classic;html=1;rounded=0;exitX=0.5;exitY=1;exitDx=0;exitDy=0;exitPerimeter=0;entryX=0.5;entryY=0;entryDx=0;entryDy=0;entryPerimeter=0;" parent="1" source="Uhqnp6pyCTakScg4Vnwg-2" target="Uhqnp6pyCTakScg4Vnwg-61" edge="1">
          <mxGeometry width="50" height="50" relative="1" as="geometry">
            <mxPoint x="290" y="340" as="sourcePoint" />
            <mxPoint x="340" y="290" as="targetPoint" />
          </mxGeometry>
        </mxCell>
        <mxCell id="Uhqnp6pyCTakScg4Vnwg-7" value="num1&amp;gt;num2" style="strokeWidth=2;html=1;shape=mxgraph.flowchart.decision;whiteSpace=wrap;" parent="1" vertex="1">
          <mxGeometry x="140" y="270" width="100" height="100" as="geometry" />
        </mxCell>
        <mxCell id="Uhqnp6pyCTakScg4Vnwg-9" value="while num2&amp;lt;=num1" style="strokeWidth=2;html=1;shape=mxgraph.flowchart.start_2;whiteSpace=wrap;" parent="1" vertex="1">
          <mxGeometry x="30" y="370" width="100" height="100" as="geometry" />
        </mxCell>
        <mxCell id="Uhqnp6pyCTakScg4Vnwg-10" value="num2" style="shape=document;whiteSpace=wrap;html=1;boundedLbl=1;" parent="1" vertex="1">
          <mxGeometry x="20" y="490" width="120" height="80" as="geometry" />
        </mxCell>
        <mxCell id="Uhqnp6pyCTakScg4Vnwg-11" value="num2=num2+1" style="rounded=0;whiteSpace=wrap;html=1;" parent="1" vertex="1">
          <mxGeometry x="20" y="590" width="120" height="60" as="geometry" />
        </mxCell>
        <mxCell id="Uhqnp6pyCTakScg4Vnwg-14" value="while num1&amp;lt;=num2" style="strokeWidth=2;html=1;shape=mxgraph.flowchart.start_2;whiteSpace=wrap;" parent="1" vertex="1">
          <mxGeometry x="230" y="370" width="100" height="100" as="geometry" />
        </mxCell>
        <mxCell id="Uhqnp6pyCTakScg4Vnwg-15" value="num1" style="shape=document;whiteSpace=wrap;html=1;boundedLbl=1;" parent="1" vertex="1">
          <mxGeometry x="220" y="490" width="120" height="80" as="geometry" />
        </mxCell>
        <mxCell id="Uhqnp6pyCTakScg4Vnwg-16" value="num1=num1+1" style="rounded=0;whiteSpace=wrap;html=1;" parent="1" vertex="1">
          <mxGeometry x="220" y="590" width="120" height="60" as="geometry" />
        </mxCell>
        <mxCell id="Uhqnp6pyCTakScg4Vnwg-31" value="" style="endArrow=classic;html=1;rounded=0;exitX=1;exitY=0.5;exitDx=0;exitDy=0;exitPerimeter=0;entryX=0.5;entryY=0;entryDx=0;entryDy=0;entryPerimeter=0;" parent="1" source="Uhqnp6pyCTakScg4Vnwg-7" target="Uhqnp6pyCTakScg4Vnwg-14" edge="1">
          <mxGeometry width="50" height="50" relative="1" as="geometry">
            <mxPoint x="300" y="410" as="sourcePoint" />
            <mxPoint x="350" y="360" as="targetPoint" />
            <Array as="points">
              <mxPoint x="280" y="320" />
            </Array>
          </mxGeometry>
        </mxCell>
        <mxCell id="Uhqnp6pyCTakScg4Vnwg-32" value="" style="endArrow=classic;html=1;rounded=0;exitX=0;exitY=0.5;exitDx=0;exitDy=0;exitPerimeter=0;entryX=0.5;entryY=0;entryDx=0;entryDy=0;entryPerimeter=0;" parent="1" source="Uhqnp6pyCTakScg4Vnwg-7" target="Uhqnp6pyCTakScg4Vnwg-9" edge="1">
          <mxGeometry width="50" height="50" relative="1" as="geometry">
            <mxPoint x="300" y="410" as="sourcePoint" />
            <mxPoint x="350" y="360" as="targetPoint" />
            <Array as="points">
              <mxPoint x="80" y="320" />
            </Array>
          </mxGeometry>
        </mxCell>
        <mxCell id="Uhqnp6pyCTakScg4Vnwg-33" value="" style="endArrow=classic;html=1;rounded=0;exitX=0.5;exitY=1;exitDx=0;exitDy=0;exitPerimeter=0;entryX=0.5;entryY=0;entryDx=0;entryDy=0;" parent="1" source="Uhqnp6pyCTakScg4Vnwg-14" target="Uhqnp6pyCTakScg4Vnwg-15" edge="1">
          <mxGeometry width="50" height="50" relative="1" as="geometry">
            <mxPoint x="300" y="540" as="sourcePoint" />
            <mxPoint x="350" y="490" as="targetPoint" />
          </mxGeometry>
        </mxCell>
        <mxCell id="Uhqnp6pyCTakScg4Vnwg-34" value="" style="endArrow=classic;html=1;rounded=0;exitX=0.5;exitY=1;exitDx=0;exitDy=0;exitPerimeter=0;entryX=0.5;entryY=0;entryDx=0;entryDy=0;" parent="1" source="Uhqnp6pyCTakScg4Vnwg-9" target="Uhqnp6pyCTakScg4Vnwg-10" edge="1">
          <mxGeometry width="50" height="50" relative="1" as="geometry">
            <mxPoint x="300" y="540" as="sourcePoint" />
            <mxPoint x="350" y="490" as="targetPoint" />
          </mxGeometry>
        </mxCell>
        <mxCell id="Uhqnp6pyCTakScg4Vnwg-37" value="" style="endArrow=classic;html=1;rounded=0;entryX=0.5;entryY=0;entryDx=0;entryDy=0;exitX=0.502;exitY=0.841;exitDx=0;exitDy=0;exitPerimeter=0;" parent="1" source="Uhqnp6pyCTakScg4Vnwg-15" target="Uhqnp6pyCTakScg4Vnwg-16" edge="1">
          <mxGeometry width="50" height="50" relative="1" as="geometry">
            <mxPoint x="300" y="540" as="sourcePoint" />
            <mxPoint x="350" y="490" as="targetPoint" />
          </mxGeometry>
        </mxCell>
        <mxCell id="Uhqnp6pyCTakScg4Vnwg-39" value="" style="endArrow=classic;html=1;rounded=0;exitX=0.493;exitY=0.846;exitDx=0;exitDy=0;exitPerimeter=0;entryX=0.5;entryY=0;entryDx=0;entryDy=0;" parent="1" source="Uhqnp6pyCTakScg4Vnwg-10" target="Uhqnp6pyCTakScg4Vnwg-11" edge="1">
          <mxGeometry width="50" height="50" relative="1" as="geometry">
            <mxPoint x="300" y="540" as="sourcePoint" />
            <mxPoint x="350" y="490" as="targetPoint" />
          </mxGeometry>
        </mxCell>
        <mxCell id="Uhqnp6pyCTakScg4Vnwg-40" value="" style="endArrow=classic;html=1;rounded=0;exitX=0.5;exitY=1;exitDx=0;exitDy=0;entryX=0.5;entryY=0;entryDx=0;entryDy=0;" parent="1" source="Uhqnp6pyCTakScg4Vnwg-16" target="Uhqnp6pyCTakScg4Vnwg-28" edge="1">
          <mxGeometry width="50" height="50" relative="1" as="geometry">
            <mxPoint x="300" y="540" as="sourcePoint" />
            <mxPoint x="350" y="490" as="targetPoint" />
          </mxGeometry>
        </mxCell>
        <mxCell id="Uhqnp6pyCTakScg4Vnwg-41" value="" style="endArrow=classic;html=1;rounded=0;exitX=0.5;exitY=1;exitDx=0;exitDy=0;entryX=0.5;entryY=0;entryDx=0;entryDy=0;" parent="1" source="Uhqnp6pyCTakScg4Vnwg-11" target="Uhqnp6pyCTakScg4Vnwg-20" edge="1">
          <mxGeometry width="50" height="50" relative="1" as="geometry">
            <mxPoint x="300" y="540" as="sourcePoint" />
            <mxPoint x="350" y="490" as="targetPoint" />
          </mxGeometry>
        </mxCell>
        <mxCell id="Uhqnp6pyCTakScg4Vnwg-43" value="קלוט מספר טבעי מ-0 עד n. הצג את כל המספרים הזוגיים מ-0 עד n (כולל אם הוא זוגי). לא מובטח ש-n זוגי." style="shape=note;whiteSpace=wrap;html=1;backgroundOutline=1;fontColor=#000000;darkOpacity=0.05;fillColor=#FFF9B2;strokeColor=none;fillStyle=solid;direction=west;gradientDirection=north;gradientColor=#FFF2A1;shadow=1;size=20;pointerEvents=1;align=right;textDirection=rtl;" parent="1" vertex="1">
          <mxGeometry x="690" y="80" width="140" height="70" as="geometry" />
        </mxCell>
        <mxCell id="Uhqnp6pyCTakScg4Vnwg-42" value="no&#39; 3" style="text;html=1;align=center;verticalAlign=middle;whiteSpace=wrap;rounded=0;" parent="1" vertex="1">
          <mxGeometry x="610" y="60" width="60" height="30" as="geometry" />
        </mxCell>
        <mxCell id="Uhqnp6pyCTakScg4Vnwg-45" value="start" style="strokeWidth=2;html=1;shape=mxgraph.flowchart.terminator;whiteSpace=wrap;" parent="1" vertex="1">
          <mxGeometry x="590" y="110" width="100" height="60" as="geometry" />
        </mxCell>
        <mxCell id="Uhqnp6pyCTakScg4Vnwg-48" value="EvenNumber=0" style="rounded=0;whiteSpace=wrap;html=1;" parent="1" vertex="1">
          <mxGeometry x="580" y="270" width="120" height="60" as="geometry" />
        </mxCell>
        <mxCell id="Uhqnp6pyCTakScg4Vnwg-60" value="Num" style="text;html=1;align=center;verticalAlign=middle;whiteSpace=wrap;rounded=0;" parent="1" vertex="1">
          <mxGeometry x="610" y="205" width="60" height="30" as="geometry" />
        </mxCell>
        <mxCell id="Uhqnp6pyCTakScg4Vnwg-87" value="" style="endArrow=classic;html=1;rounded=0;exitX=0.5;exitY=1;exitDx=0;exitDy=0;exitPerimeter=0;entryX=0.5;entryY=0;entryDx=0;entryDy=0;entryPerimeter=0;" parent="1" source="Uhqnp6pyCTakScg4Vnwg-45" target="Uhqnp6pyCTakScg4Vnwg-59" edge="1">
          <mxGeometry width="50" height="50" relative="1" as="geometry">
            <mxPoint x="510" y="260" as="sourcePoint" />
            <mxPoint x="560" y="210" as="targetPoint" />
          </mxGeometry>
        </mxCell>
        <mxCell id="Uhqnp6pyCTakScg4Vnwg-89" value="" style="endArrow=classic;html=1;rounded=0;exitX=0.5;exitY=1;exitDx=0;exitDy=0;exitPerimeter=0;entryX=0.5;entryY=0;entryDx=0;entryDy=0;" parent="1" source="Uhqnp6pyCTakScg4Vnwg-59" target="Uhqnp6pyCTakScg4Vnwg-48" edge="1">
          <mxGeometry width="50" height="50" relative="1" as="geometry">
            <mxPoint x="510" y="260" as="sourcePoint" />
            <mxPoint x="560" y="210" as="targetPoint" />
          </mxGeometry>
        </mxCell>
        <mxCell id="Uhqnp6pyCTakScg4Vnwg-90" value="" style="endArrow=classic;html=1;rounded=0;exitX=0.5;exitY=1;exitDx=0;exitDy=0;" parent="1" source="Uhqnp6pyCTakScg4Vnwg-48" edge="1">
          <mxGeometry width="50" height="50" relative="1" as="geometry">
            <mxPoint x="510" y="400" as="sourcePoint" />
            <mxPoint x="640" y="350" as="targetPoint" />
          </mxGeometry>
        </mxCell>
        <mxCell id="Uhqnp6pyCTakScg4Vnwg-99" value="end" style="strokeWidth=2;html=1;shape=mxgraph.flowchart.terminator;whiteSpace=wrap;" parent="1" vertex="1">
          <mxGeometry x="720" y="470" width="100" height="60" as="geometry" />
        </mxCell>
        <mxCell id="Uhqnp6pyCTakScg4Vnwg-103" value="" style="endArrow=classic;html=1;rounded=0;entryX=0.5;entryY=0;entryDx=0;entryDy=0;exitX=1;exitY=0.5;exitDx=0;exitDy=0;exitPerimeter=0;" parent="1" edge="1">
          <mxGeometry width="50" height="50" relative="1" as="geometry">
            <mxPoint x="690" y="400" as="sourcePoint" />
            <mxPoint x="770" y="470" as="targetPoint" />
            <Array as="points">
              <mxPoint x="770" y="400" />
            </Array>
          </mxGeometry>
        </mxCell>
        <mxCell id="Uhqnp6pyCTakScg4Vnwg-105" value="no&#39; 5" style="text;html=1;align=center;verticalAlign=middle;whiteSpace=wrap;rounded=0;" parent="1" vertex="1">
          <mxGeometry x="290" y="1120" width="60" height="30" as="geometry" />
        </mxCell>
        <mxCell id="Uhqnp6pyCTakScg4Vnwg-106" value="start" style="strokeWidth=2;html=1;shape=mxgraph.flowchart.terminator;whiteSpace=wrap;" parent="1" vertex="1">
          <mxGeometry x="270" y="1160" width="100" height="60" as="geometry" />
        </mxCell>
        <mxCell id="Uhqnp6pyCTakScg4Vnwg-107" value="&lt;br&gt;קלוט מספרים אי-שליליים עד ערך סיום קלט (הזקיף -99)&amp;nbsp;&lt;br&gt;&amp;nbsp;והצג את סכומם.&lt;div&gt;&lt;br/&gt;&lt;/div&gt;" style="shape=note;whiteSpace=wrap;html=1;backgroundOutline=1;fontColor=#000000;darkOpacity=0.05;fillColor=#FFF9B2;strokeColor=none;fillStyle=solid;direction=west;gradientDirection=north;gradientColor=#FFF2A1;shadow=1;size=20;pointerEvents=1;textDirection=rtl;align=right;" parent="1" vertex="1">
          <mxGeometry x="100" y="1160" width="140" height="60" as="geometry" />
        </mxCell>
        <mxCell id="Uhqnp6pyCTakScg4Vnwg-108" value="" style="verticalLabelPosition=bottom;verticalAlign=top;html=1;shape=card;whiteSpace=wrap;size=20;arcSize=12;" parent="1" vertex="1">
          <mxGeometry x="270" y="1240" width="100" height="60" as="geometry" />
        </mxCell>
        <mxCell id="Uhqnp6pyCTakScg4Vnwg-114" value="" style="edgeStyle=orthogonalEdgeStyle;rounded=0;orthogonalLoop=1;jettySize=auto;html=1;" parent="1" source="Uhqnp6pyCTakScg4Vnwg-110" target="Uhqnp6pyCTakScg4Vnwg-113" edge="1">
          <mxGeometry relative="1" as="geometry" />
        </mxCell>
        <mxCell id="Uhqnp6pyCTakScg4Vnwg-110" value="while Num!= -99" style="strokeWidth=2;html=1;shape=mxgraph.flowchart.start_2;whiteSpace=wrap;" parent="1" vertex="1">
          <mxGeometry x="270" y="1400" width="100" height="100" as="geometry" />
        </mxCell>
        <mxCell id="Uhqnp6pyCTakScg4Vnwg-111" value="Num" style="text;html=1;align=center;verticalAlign=middle;whiteSpace=wrap;rounded=0;" parent="1" vertex="1">
          <mxGeometry x="290" y="1255" width="60" height="30" as="geometry" />
        </mxCell>
        <mxCell id="Uhqnp6pyCTakScg4Vnwg-112" value="Sum=0" style="rounded=0;whiteSpace=wrap;html=1;" parent="1" vertex="1">
          <mxGeometry x="260" y="1320" width="120" height="60" as="geometry" />
        </mxCell>
        <mxCell id="Uhqnp6pyCTakScg4Vnwg-113" value="Sum=Sum+Num" style="whiteSpace=wrap;html=1;strokeWidth=2;" parent="1" vertex="1">
          <mxGeometry x="260" y="1520" width="120" height="60" as="geometry" />
        </mxCell>
        <mxCell id="Uhqnp6pyCTakScg4Vnwg-115" value="Sum" style="shape=document;whiteSpace=wrap;html=1;boundedLbl=1;strokeWidth=2;" parent="1" vertex="1">
          <mxGeometry x="400" y="1520" width="120" height="80" as="geometry" />
        </mxCell>
        <mxCell id="Uhqnp6pyCTakScg4Vnwg-117" value="" style="rounded=0;whiteSpace=wrap;html=1;fillColor=#030303;" parent="1" vertex="1">
          <mxGeometry x="240" y="1680" width="160" height="10" as="geometry" />
        </mxCell>
        <mxCell id="Uhqnp6pyCTakScg4Vnwg-118" value="" style="verticalLabelPosition=bottom;verticalAlign=top;html=1;shape=card;whiteSpace=wrap;size=20;arcSize=12;" parent="1" vertex="1">
          <mxGeometry x="270" y="1600" width="100" height="60" as="geometry" />
        </mxCell>
        <mxCell id="Uhqnp6pyCTakScg4Vnwg-119" value="Num" style="text;html=1;align=center;verticalAlign=middle;whiteSpace=wrap;rounded=0;" parent="1" vertex="1">
          <mxGeometry x="290" y="1615" width="60" height="30" as="geometry" />
        </mxCell>
        <mxCell id="Uhqnp6pyCTakScg4Vnwg-121" value="" style="endArrow=classic;html=1;rounded=0;exitX=0.5;exitY=1;exitDx=0;exitDy=0;exitPerimeter=0;" parent="1" source="Uhqnp6pyCTakScg4Vnwg-106" target="Uhqnp6pyCTakScg4Vnwg-108" edge="1">
          <mxGeometry width="50" height="50" relative="1" as="geometry">
            <mxPoint x="410" y="1400" as="sourcePoint" />
            <mxPoint x="460" y="1350" as="targetPoint" />
          </mxGeometry>
        </mxCell>
        <mxCell id="Uhqnp6pyCTakScg4Vnwg-124" value="" style="endArrow=classic;html=1;rounded=0;" parent="1" source="Uhqnp6pyCTakScg4Vnwg-108" target="Uhqnp6pyCTakScg4Vnwg-112" edge="1">
          <mxGeometry width="50" height="50" relative="1" as="geometry">
            <mxPoint x="410" y="1400" as="sourcePoint" />
            <mxPoint x="460" y="1350" as="targetPoint" />
          </mxGeometry>
        </mxCell>
        <mxCell id="Uhqnp6pyCTakScg4Vnwg-125" value="" style="endArrow=classic;html=1;rounded=0;" parent="1" source="Uhqnp6pyCTakScg4Vnwg-112" target="Uhqnp6pyCTakScg4Vnwg-110" edge="1">
          <mxGeometry width="50" height="50" relative="1" as="geometry">
            <mxPoint x="410" y="1400" as="sourcePoint" />
            <mxPoint x="460" y="1350" as="targetPoint" />
          </mxGeometry>
        </mxCell>
        <mxCell id="Uhqnp6pyCTakScg4Vnwg-126" value="" style="endArrow=classic;html=1;rounded=0;" parent="1" source="Uhqnp6pyCTakScg4Vnwg-113" target="Uhqnp6pyCTakScg4Vnwg-118" edge="1">
          <mxGeometry width="50" height="50" relative="1" as="geometry">
            <mxPoint x="410" y="1570" as="sourcePoint" />
            <mxPoint x="460" y="1520" as="targetPoint" />
          </mxGeometry>
        </mxCell>
        <mxCell id="Uhqnp6pyCTakScg4Vnwg-127" value="" style="endArrow=classic;html=1;rounded=0;entryX=0.5;entryY=0;entryDx=0;entryDy=0;" parent="1" source="Uhqnp6pyCTakScg4Vnwg-118" target="Uhqnp6pyCTakScg4Vnwg-117" edge="1">
          <mxGeometry width="50" height="50" relative="1" as="geometry">
            <mxPoint x="410" y="1570" as="sourcePoint" />
            <mxPoint x="460" y="1520" as="targetPoint" />
          </mxGeometry>
        </mxCell>
        <mxCell id="Uhqnp6pyCTakScg4Vnwg-128" value="" style="endArrow=classic;html=1;rounded=0;" parent="1" source="Uhqnp6pyCTakScg4Vnwg-110" target="Uhqnp6pyCTakScg4Vnwg-115" edge="1">
          <mxGeometry width="50" height="50" relative="1" as="geometry">
            <mxPoint x="410" y="1470" as="sourcePoint" />
            <mxPoint x="460" y="1420" as="targetPoint" />
            <Array as="points">
              <mxPoint x="460" y="1450" />
            </Array>
          </mxGeometry>
        </mxCell>
        <mxCell id="Uhqnp6pyCTakScg4Vnwg-129" value="end" style="strokeWidth=2;html=1;shape=mxgraph.flowchart.terminator;whiteSpace=wrap;" parent="1" vertex="1">
          <mxGeometry x="410" y="1615" width="100" height="60" as="geometry" />
        </mxCell>
        <mxCell id="Uhqnp6pyCTakScg4Vnwg-49" value="while EvenNumber&amp;lt;=Num&lt;br style=&quot;font-size: 10px;&quot;&gt;&amp;nbsp;" style="strokeWidth=2;html=1;shape=mxgraph.flowchart.start_2;whiteSpace=wrap;fontSize=10;" parent="1" vertex="1">
          <mxGeometry x="590" y="350" width="100" height="100" as="geometry" />
        </mxCell>
        <mxCell id="Uhqnp6pyCTakScg4Vnwg-56" value="EvenNumber" style="shape=document;whiteSpace=wrap;html=1;boundedLbl=1;" parent="1" vertex="1">
          <mxGeometry x="580" y="470" width="120" height="80" as="geometry" />
        </mxCell>
        <mxCell id="Uhqnp6pyCTakScg4Vnwg-74" value="EvenNumber=&lt;br&gt;EvenNumber+2" style="rounded=0;whiteSpace=wrap;html=1;fontSize=10;" parent="1" vertex="1">
          <mxGeometry x="580" y="570" width="120" height="60" as="geometry" />
        </mxCell>
        <mxCell id="Uhqnp6pyCTakScg4Vnwg-75" value="" style="rounded=0;whiteSpace=wrap;html=1;fillColor=#030303;" parent="1" vertex="1">
          <mxGeometry x="570" y="650" width="140" height="10" as="geometry" />
        </mxCell>
        <mxCell id="Uhqnp6pyCTakScg4Vnwg-95" value="" style="endArrow=classic;html=1;rounded=0;exitX=0.5;exitY=1;exitDx=0;exitDy=0;exitPerimeter=0;entryX=0.5;entryY=0;entryDx=0;entryDy=0;" parent="1" source="Uhqnp6pyCTakScg4Vnwg-49" target="Uhqnp6pyCTakScg4Vnwg-56" edge="1">
          <mxGeometry width="50" height="50" relative="1" as="geometry">
            <mxPoint x="640" y="330" as="sourcePoint" />
            <mxPoint x="690" y="280" as="targetPoint" />
          </mxGeometry>
        </mxCell>
        <mxCell id="Uhqnp6pyCTakScg4Vnwg-96" value="" style="endArrow=classic;html=1;rounded=0;entryX=0.5;entryY=0;entryDx=0;entryDy=0;" parent="1" target="Uhqnp6pyCTakScg4Vnwg-74" edge="1">
          <mxGeometry width="50" height="50" relative="1" as="geometry">
            <mxPoint x="640" y="540" as="sourcePoint" />
            <mxPoint x="690" y="490" as="targetPoint" />
          </mxGeometry>
        </mxCell>
        <mxCell id="Uhqnp6pyCTakScg4Vnwg-97" value="" style="endArrow=classic;html=1;rounded=0;exitX=0.5;exitY=1;exitDx=0;exitDy=0;entryX=0.5;entryY=0;entryDx=0;entryDy=0;" parent="1" source="Uhqnp6pyCTakScg4Vnwg-74" target="Uhqnp6pyCTakScg4Vnwg-75" edge="1">
          <mxGeometry width="50" height="50" relative="1" as="geometry">
            <mxPoint x="640" y="540" as="sourcePoint" />
            <mxPoint x="690" y="490" as="targetPoint" />
          </mxGeometry>
        </mxCell>
        <mxCell id="cZFtyzRYEW9zh19J3MNc-4" value="" style="endArrow=classic;html=1;rounded=0;exitX=0.5;exitY=0.822;exitDx=0;exitDy=0;exitPerimeter=0;" edge="1" parent="1" source="Uhqnp6pyCTakScg4Vnwg-115" target="Uhqnp6pyCTakScg4Vnwg-129">
          <mxGeometry width="50" height="50" relative="1" as="geometry">
            <mxPoint x="330" y="1590" as="sourcePoint" />
            <mxPoint x="380" y="1540" as="targetPoint" />
          </mxGeometry>
        </mxCell>
      </root>
    </mxGraphModel>
  </diagram>
</mxfile>
